# Tiled2Unity generated file. Do not modify by hand.
# Wavefront file for 'Sci-FiLevelTwo_mesh_0002.obj'

# Vertices (Count = 112)
v -7 -132 0
v -8 -132 0
v -8 -131 0
v -7 -131 0
v -8 -132 0
v -9 -132 0
v -9 -131 0
v -8 -131 0
v -9 -132 0
v -10 -132 0
v -10 -131 0
v -9 -131 0
v -10 -132 0
v -11 -132 0
v -11 -131 0
v -10 -131 0
v -11 -132 0
v -12 -132 0
v -12 -131 0
v -11 -131 0
v -16 -132 0
v -17 -132 0
v -17 -131 0
v -16 -131 0
v -17 -132 0
v -18 -132 0
v -18 -131 0
v -17 -131 0
v -18 -132 0
v -19 -132 0
v -19 -131 0
v -18 -131 0
v -19 -132 0
v -20 -132 0
v -20 -131 0
v -19 -131 0
v -20 -132 0
v -21 -132 0
v -21 -131 0
v -20 -131 0
v -25 -132 0
v -26 -132 0
v -26 -131 0
v -25 -131 0
v -26 -132 0
v -27 -132 0
v -27 -131 0
v -26 -131 0
v -27 -132 0
v -28 -132 0
v -28 -131 0
v -27 -131 0
v -28 -132 0
v -29 -132 0
v -29 -131 0
v -28 -131 0
v -29 -132 0
v -30 -132 0
v -30 -131 0
v -29 -131 0
v -34 -132 0
v -35 -132 0
v -35 -131 0
v -34 -131 0
v -35 -132 0
v -36 -132 0
v -36 -131 0
v -35 -131 0
v -36 -132 0
v -37 -132 0
v -37 -131 0
v -36 -131 0
v -37 -132 0
v -38 -132 0
v -38 -131 0
v -37 -131 0
v -38 -132 0
v -39 -132 0
v -39 -131 0
v -38 -131 0
v -43 -132 0
v -44 -132 0
v -44 -131 0
v -43 -131 0
v -44 -132 0
v -45 -132 0
v -45 -131 0
v -44 -131 0
v -45 -132 0
v -46 -132 0
v -46 -131 0
v -45 -131 0
v -46 -132 0
v -47 -132 0
v -47 -131 0
v -46 -131 0
v -47 -132 0
v -48 -132 0
v -48 -131 0
v -47 -131 0
v -41 -150 0
v -42 -150 0
v -42 -149 0
v -41 -149 0
v -42 -150 0
v -43 -150 0
v -43 -149 0
v -42 -149 0
v -43 -150 0
v -44 -150 0
v -44 -149 0
v -43 -149 0

# Texture cooridinates (Count = 8)
vt 0.7428572 0.8695652
vt 0.7714286 0.8695652
vt 0.7714286 0.9130435
vt 0.7428572 0.9130435
vt 0.8 0.8695652
vt 0.8 0.9130435
vt 0.8285714 0.8695652
vt 0.8285714 0.9130435

# Normal
vn 0 0 -1

# Mesh description
g Sci-FiLevelTwo_mesh_0002

# Faces
f 1/1/1 2/2/1 3/3/1 4/4/1
f 5/2/1 6/5/1 7/6/1 8/3/1
f 9/2/1 10/5/1 11/6/1 12/3/1
f 13/2/1 14/5/1 15/6/1 16/3/1
f 17/5/1 18/7/1 19/8/1 20/6/1
f 21/1/1 22/2/1 23/3/1 24/4/1
f 25/2/1 26/5/1 27/6/1 28/3/1
f 29/2/1 30/5/1 31/6/1 32/3/1
f 33/2/1 34/5/1 35/6/1 36/3/1
f 37/5/1 38/7/1 39/8/1 40/6/1
f 41/1/1 42/2/1 43/3/1 44/4/1
f 45/2/1 46/5/1 47/6/1 48/3/1
f 49/2/1 50/5/1 51/6/1 52/3/1
f 53/2/1 54/5/1 55/6/1 56/3/1
f 57/5/1 58/7/1 59/8/1 60/6/1
f 61/1/1 62/2/1 63/3/1 64/4/1
f 65/2/1 66/5/1 67/6/1 68/3/1
f 69/2/1 70/5/1 71/6/1 72/3/1
f 73/2/1 74/5/1 75/6/1 76/3/1
f 77/5/1 78/7/1 79/8/1 80/6/1
f 81/1/1 82/2/1 83/3/1 84/4/1
f 85/2/1 86/5/1 87/6/1 88/3/1
f 89/2/1 90/5/1 91/6/1 92/3/1
f 93/2/1 94/5/1 95/6/1 96/3/1
f 97/5/1 98/7/1 99/8/1 100/6/1
f 101/1/1 102/2/1 103/3/1 104/4/1
f 105/2/1 106/5/1 107/6/1 108/3/1
f 109/5/1 110/7/1 111/8/1 112/6/1

