# Tiled2Unity generated file. Do not modify by hand.
# Wavefront file for 'Sci-FiLevelTwo_mesh_0003.obj'

# Vertices (Count = 348)
v -20 -140 0
v -21 -140 0
v -21 -139 0
v -20 -139 0
v -21 -140 0
v -22 -140 0
v -22 -139 0
v -21 -139 0
v -22 -140 0
v -23 -140 0
v -23 -139 0
v -22 -139 0
v -20 -141 0
v -21 -141 0
v -21 -140 0
v -20 -140 0
v -21 -141 0
v -22 -141 0
v -22 -140 0
v -21 -140 0
v -22 -141 0
v -23 -141 0
v -23 -140 0
v -22 -140 0
v -30 -141 0
v -31 -141 0
v -31 -140 0
v -30 -140 0
v -31 -141 0
v -32 -141 0
v -32 -140 0
v -31 -140 0
v -32 -141 0
v -33 -141 0
v -33 -140 0
v -32 -140 0
v -20 -142 0
v -21 -142 0
v -21 -141 0
v -20 -141 0
v -21 -142 0
v -22 -142 0
v -22 -141 0
v -21 -141 0
v -22 -142 0
v -23 -142 0
v -23 -141 0
v -22 -141 0
v -30 -142 0
v -31 -142 0
v -31 -141 0
v -30 -141 0
v -31 -142 0
v -32 -142 0
v -32 -141 0
v -31 -141 0
v -32 -142 0
v -33 -142 0
v -33 -141 0
v -32 -141 0
v -20 -143 0
v -21 -143 0
v -21 -142 0
v -20 -142 0
v -21 -143 0
v -22 -143 0
v -22 -142 0
v -21 -142 0
v -22 -143 0
v -23 -143 0
v -23 -142 0
v -22 -142 0
v -30 -143 0
v -31 -143 0
v -31 -142 0
v -30 -142 0
v -31 -143 0
v -32 -143 0
v -32 -142 0
v -31 -142 0
v -32 -143 0
v -33 -143 0
v -33 -142 0
v -32 -142 0
v -8 -144 0
v -9 -144 0
v -9 -143 0
v -8 -143 0
v -9 -144 0
v -10 -144 0
v -10 -143 0
v -9 -143 0
v -10 -144 0
v -11 -144 0
v -11 -143 0
v -10 -143 0
v -20 -144 0
v -21 -144 0
v -21 -143 0
v -20 -143 0
v -21 -144 0
v -22 -144 0
v -22 -143 0
v -21 -143 0
v -22 -144 0
v -23 -144 0
v -23 -143 0
v -22 -143 0
v -30 -144 0
v -31 -144 0
v -31 -143 0
v -30 -143 0
v -31 -144 0
v -32 -144 0
v -32 -143 0
v -31 -143 0
v -32 -144 0
v -33 -144 0
v -33 -143 0
v -32 -143 0
v -50 -144 0
v -51 -144 0
v -51 -143 0
v -50 -143 0
v -51 -144 0
v -52 -144 0
v -52 -143 0
v -51 -143 0
v -52 -144 0
v -53 -144 0
v -53 -143 0
v -52 -143 0
v -8 -145 0
v -9 -145 0
v -9 -144 0
v -8 -144 0
v -9 -145 0
v -10 -145 0
v -10 -144 0
v -9 -144 0
v -10 -145 0
v -11 -145 0
v -11 -144 0
v -10 -144 0
v -20 -145 0
v -21 -145 0
v -21 -144 0
v -20 -144 0
v -21 -145 0
v -22 -145 0
v -22 -144 0
v -21 -144 0
v -22 -145 0
v -23 -145 0
v -23 -144 0
v -22 -144 0
v -30 -145 0
v -31 -145 0
v -31 -144 0
v -30 -144 0
v -31 -145 0
v -32 -145 0
v -32 -144 0
v -31 -144 0
v -32 -145 0
v -33 -145 0
v -33 -144 0
v -32 -144 0
v -50 -145 0
v -51 -145 0
v -51 -144 0
v -50 -144 0
v -51 -145 0
v -52 -145 0
v -52 -144 0
v -51 -144 0
v -52 -145 0
v -53 -145 0
v -53 -144 0
v -52 -144 0
v -8 -146 0
v -9 -146 0
v -9 -145 0
v -8 -145 0
v -9 -146 0
v -10 -146 0
v -10 -145 0
v -9 -145 0
v -10 -146 0
v -11 -146 0
v -11 -145 0
v -10 -145 0
v -20 -146 0
v -21 -146 0
v -21 -145 0
v -20 -145 0
v -21 -146 0
v -22 -146 0
v -22 -145 0
v -21 -145 0
v -22 -146 0
v -23 -146 0
v -23 -145 0
v -22 -145 0
v -30 -146 0
v -31 -146 0
v -31 -145 0
v -30 -145 0
v -31 -146 0
v -32 -146 0
v -32 -145 0
v -31 -145 0
v -32 -146 0
v -33 -146 0
v -33 -145 0
v -32 -145 0
v -50 -146 0
v -51 -146 0
v -51 -145 0
v -50 -145 0
v -51 -146 0
v -52 -146 0
v -52 -145 0
v -51 -145 0
v -52 -146 0
v -53 -146 0
v -53 -145 0
v -52 -145 0
v -8 -147 0
v -9 -147 0
v -9 -146 0
v -8 -146 0
v -9 -147 0
v -10 -147 0
v -10 -146 0
v -9 -146 0
v -10 -147 0
v -11 -147 0
v -11 -146 0
v -10 -146 0
v -20 -147 0
v -21 -147 0
v -21 -146 0
v -20 -146 0
v -21 -147 0
v -22 -147 0
v -22 -146 0
v -21 -146 0
v -22 -147 0
v -23 -147 0
v -23 -146 0
v -22 -146 0
v -30 -147 0
v -31 -147 0
v -31 -146 0
v -30 -146 0
v -31 -147 0
v -32 -147 0
v -32 -146 0
v -31 -146 0
v -32 -147 0
v -33 -147 0
v -33 -146 0
v -32 -146 0
v -8 -148 0
v -9 -148 0
v -9 -147 0
v -8 -147 0
v -9 -148 0
v -10 -148 0
v -10 -147 0
v -9 -147 0
v -10 -148 0
v -11 -148 0
v -11 -147 0
v -10 -147 0
v -20 -148 0
v -21 -148 0
v -21 -147 0
v -20 -147 0
v -21 -148 0
v -22 -148 0
v -22 -147 0
v -21 -147 0
v -22 -148 0
v -23 -148 0
v -23 -147 0
v -22 -147 0
v -30 -148 0
v -31 -148 0
v -31 -147 0
v -30 -147 0
v -31 -148 0
v -32 -148 0
v -32 -147 0
v -31 -147 0
v -32 -148 0
v -33 -148 0
v -33 -147 0
v -32 -147 0
v -8 -149 0
v -9 -149 0
v -9 -148 0
v -8 -148 0
v -9 -149 0
v -10 -149 0
v -10 -148 0
v -9 -148 0
v -10 -149 0
v -11 -149 0
v -11 -148 0
v -10 -148 0
v -20 -149 0
v -21 -149 0
v -21 -148 0
v -20 -148 0
v -21 -149 0
v -22 -149 0
v -22 -148 0
v -21 -148 0
v -22 -149 0
v -23 -149 0
v -23 -148 0
v -22 -148 0
v -30 -149 0
v -31 -149 0
v -31 -148 0
v -30 -148 0
v -31 -149 0
v -32 -149 0
v -32 -148 0
v -31 -148 0
v -32 -149 0
v -33 -149 0
v -33 -148 0
v -32 -148 0
v -20 -150 0
v -21 -150 0
v -21 -149 0
v -20 -149 0
v -21 -150 0
v -22 -150 0
v -22 -149 0
v -21 -149 0
v -22 -150 0
v -23 -150 0
v -23 -149 0
v -22 -149 0

# Texture cooridinates (Count = 24)
vt 0.9142857 0.7391304
vt 0.9428571 0.7391304
vt 0.9428571 0.7826087
vt 0.9142857 0.7826087
vt 0.9714286 0.7391304
vt 0.9714286 0.7826087
vt 1 0.7391304
vt 1 0.7826087
vt 0.9142857 0.6956522
vt 0.9428571 0.6956522
vt 0.9714286 0.6956522
vt 1 0.6956522
vt 0.9142857 0.6521739
vt 0.9428571 0.6521739
vt 0.9714286 0.6521739
vt 1 0.6521739
vt 0.8285714 0.1739131
vt 0.8571429 0.1739131
vt 0.8571429 0.2173913
vt 0.8285714 0.2173913
vt 0.8857143 0.1739131
vt 0.8857143 0.2173913
vt 0.9142857 0.1739131
vt 0.9142857 0.2173913

# Normal
vn 0 0 -1

# Mesh description
g Sci-FiLevelTwo_mesh_0003

# Faces
f 1/1/1 2/2/1 3/3/1 4/4/1
f 5/2/1 6/5/1 7/6/1 8/3/1
f 9/5/1 10/7/1 11/8/1 12/6/1
f 13/9/1 14/10/1 15/2/1 16/1/1
f 17/10/1 18/11/1 19/5/1 20/2/1
f 21/11/1 22/12/1 23/7/1 24/5/1
f 25/1/1 26/2/1 27/3/1 28/4/1
f 29/2/1 30/5/1 31/6/1 32/3/1
f 33/5/1 34/7/1 35/8/1 36/6/1
f 37/9/1 38/10/1 39/2/1 40/1/1
f 41/10/1 42/11/1 43/5/1 44/2/1
f 45/11/1 46/12/1 47/7/1 48/5/1
f 49/9/1 50/10/1 51/2/1 52/1/1
f 53/10/1 54/11/1 55/5/1 56/2/1
f 57/11/1 58/12/1 59/7/1 60/5/1
f 61/13/1 62/14/1 63/10/1 64/9/1
f 65/14/1 66/15/1 67/11/1 68/10/1
f 69/15/1 70/16/1 71/12/1 72/11/1
f 73/13/1 74/14/1 75/10/1 76/9/1
f 77/14/1 78/15/1 79/11/1 80/10/1
f 81/15/1 82/16/1 83/12/1 84/11/1
f 85/1/1 86/2/1 87/3/1 88/4/1
f 89/2/1 90/5/1 91/6/1 92/3/1
f 93/5/1 94/7/1 95/8/1 96/6/1
f 97/1/1 98/2/1 99/3/1 100/4/1
f 101/2/1 102/5/1 103/6/1 104/3/1
f 105/5/1 106/7/1 107/8/1 108/6/1
f 109/1/1 110/2/1 111/3/1 112/4/1
f 113/2/1 114/5/1 115/6/1 116/3/1
f 117/5/1 118/7/1 119/8/1 120/6/1
f 121/1/1 122/2/1 123/3/1 124/4/1
f 125/2/1 126/5/1 127/6/1 128/3/1
f 129/5/1 130/7/1 131/8/1 132/6/1
f 133/9/1 134/10/1 135/2/1 136/1/1
f 137/10/1 138/11/1 139/5/1 140/2/1
f 141/11/1 142/12/1 143/7/1 144/5/1
f 145/9/1 146/10/1 147/2/1 148/1/1
f 149/10/1 150/11/1 151/5/1 152/2/1
f 153/11/1 154/12/1 155/7/1 156/5/1
f 157/9/1 158/10/1 159/2/1 160/1/1
f 161/10/1 162/11/1 163/5/1 164/2/1
f 165/11/1 166/12/1 167/7/1 168/5/1
f 169/9/1 170/10/1 171/2/1 172/1/1
f 173/10/1 174/11/1 175/5/1 176/2/1
f 177/11/1 178/12/1 179/7/1 180/5/1
f 181/13/1 182/14/1 183/10/1 184/9/1
f 185/14/1 186/15/1 187/11/1 188/10/1
f 189/15/1 190/16/1 191/12/1 192/11/1
f 193/13/1 194/14/1 195/10/1 196/9/1
f 197/14/1 198/15/1 199/11/1 200/10/1
f 201/15/1 202/16/1 203/12/1 204/11/1
f 205/13/1 206/14/1 207/10/1 208/9/1
f 209/14/1 210/15/1 211/11/1 212/10/1
f 213/15/1 214/16/1 215/12/1 216/11/1
f 217/13/1 218/14/1 219/10/1 220/9/1
f 221/14/1 222/15/1 223/11/1 224/10/1
f 225/15/1 226/16/1 227/12/1 228/11/1
f 229/1/1 230/2/1 231/3/1 232/4/1
f 233/2/1 234/5/1 235/6/1 236/3/1
f 237/5/1 238/7/1 239/8/1 240/6/1
f 241/1/1 242/2/1 243/3/1 244/4/1
f 245/2/1 246/5/1 247/6/1 248/3/1
f 249/5/1 250/7/1 251/8/1 252/6/1
f 253/1/1 254/2/1 255/3/1 256/4/1
f 257/2/1 258/5/1 259/6/1 260/3/1
f 261/5/1 262/7/1 263/8/1 264/6/1
f 265/9/1 266/10/1 267/2/1 268/1/1
f 269/10/1 270/11/1 271/5/1 272/2/1
f 273/11/1 274/12/1 275/7/1 276/5/1
f 277/9/1 278/10/1 279/2/1 280/1/1
f 281/10/1 282/11/1 283/5/1 284/2/1
f 285/11/1 286/12/1 287/7/1 288/5/1
f 289/9/1 290/10/1 291/2/1 292/1/1
f 293/10/1 294/11/1 295/5/1 296/2/1
f 297/11/1 298/12/1 299/7/1 300/5/1
f 301/13/1 302/14/1 303/10/1 304/9/1
f 305/14/1 306/15/1 307/11/1 308/10/1
f 309/15/1 310/16/1 311/12/1 312/11/1
f 313/13/1 314/14/1 315/10/1 316/9/1
f 317/14/1 318/15/1 319/11/1 320/10/1
f 321/15/1 322/16/1 323/12/1 324/11/1
f 325/13/1 326/14/1 327/10/1 328/9/1
f 329/14/1 330/15/1 331/11/1 332/10/1
f 333/15/1 334/16/1 335/12/1 336/11/1
f 337/17/1 338/18/1 339/19/1 340/20/1
f 341/18/1 342/21/1 343/22/1 344/19/1
f 345/21/1 346/23/1 347/24/1 348/22/1

