# Tiled2Unity generated file. Do not modify by hand.
# Wavefront file for 'Sci-FiLevelTwo_mesh_0004.obj'

# Vertices (Count = 932)
v -2 -125 0
v -3 -125 0
v -3 -124 0
v -2 -124 0
v -3 -125 0
v -4 -125 0
v -4 -124 0
v -3 -124 0
v -4 -125 0
v -5 -125 0
v -5 -124 0
v -4 -124 0
v -5 -125 0
v -6 -125 0
v -6 -124 0
v -5 -124 0
v -6 -125 0
v -7 -125 0
v -7 -124 0
v -6 -124 0
v -7 -125 0
v -8 -125 0
v -8 -124 0
v -7 -124 0
v -8 -125 0
v -9 -125 0
v -9 -124 0
v -8 -124 0
v -9 -125 0
v -10 -125 0
v -10 -124 0
v -9 -124 0
v -10 -125 0
v -11 -125 0
v -11 -124 0
v -10 -124 0
v -11 -125 0
v -12 -125 0
v -12 -124 0
v -11 -124 0
v -12 -125 0
v -13 -125 0
v -13 -124 0
v -12 -124 0
v -13 -125 0
v -14 -125 0
v -14 -124 0
v -13 -124 0
v -14 -125 0
v -15 -125 0
v -15 -124 0
v -14 -124 0
v -15 -125 0
v -16 -125 0
v -16 -124 0
v -15 -124 0
v -16 -125 0
v -17 -125 0
v -17 -124 0
v -16 -124 0
v -17 -125 0
v -18 -125 0
v -18 -124 0
v -17 -124 0
v -18 -125 0
v -19 -125 0
v -19 -124 0
v -18 -124 0
v -19 -125 0
v -20 -125 0
v -20 -124 0
v -19 -124 0
v -20 -125 0
v -21 -125 0
v -21 -124 0
v -20 -124 0
v -21 -125 0
v -22 -125 0
v -22 -124 0
v -21 -124 0
v -22 -125 0
v -23 -125 0
v -23 -124 0
v -22 -124 0
v -23 -125 0
v -24 -125 0
v -24 -124 0
v -23 -124 0
v -24 -125 0
v -25 -125 0
v -25 -124 0
v -24 -124 0
v -25 -125 0
v -26 -125 0
v -26 -124 0
v -25 -124 0
v -26 -125 0
v -27 -125 0
v -27 -124 0
v -26 -124 0
v -27 -125 0
v -28 -125 0
v -28 -124 0
v -27 -124 0
v -28 -125 0
v -29 -125 0
v -29 -124 0
v -28 -124 0
v -29 -125 0
v -30 -125 0
v -30 -124 0
v -29 -124 0
v -30 -125 0
v -31 -125 0
v -31 -124 0
v -30 -124 0
v -31 -125 0
v -32 -125 0
v -32 -124 0
v -31 -124 0
v -32 -125 0
v -33 -125 0
v -33 -124 0
v -32 -124 0
v -33 -125 0
v -34 -125 0
v -34 -124 0
v -33 -124 0
v -34 -125 0
v -35 -125 0
v -35 -124 0
v -34 -124 0
v -35 -125 0
v -36 -125 0
v -36 -124 0
v -35 -124 0
v -36 -125 0
v -37 -125 0
v -37 -124 0
v -36 -124 0
v -37 -125 0
v -38 -125 0
v -38 -124 0
v -37 -124 0
v -38 -125 0
v -39 -125 0
v -39 -124 0
v -38 -124 0
v -39 -125 0
v -40 -125 0
v -40 -124 0
v -39 -124 0
v -40 -125 0
v -41 -125 0
v -41 -124 0
v -40 -124 0
v -41 -125 0
v -42 -125 0
v -42 -124 0
v -41 -124 0
v -42 -125 0
v -43 -125 0
v -43 -124 0
v -42 -124 0
v -43 -125 0
v -44 -125 0
v -44 -124 0
v -43 -124 0
v -44 -125 0
v -45 -125 0
v -45 -124 0
v -44 -124 0
v -45 -125 0
v -46 -125 0
v -46 -124 0
v -45 -124 0
v -46 -125 0
v -47 -125 0
v -47 -124 0
v -46 -124 0
v -47 -125 0
v -48 -125 0
v -48 -124 0
v -47 -124 0
v -48 -125 0
v -49 -125 0
v -49 -124 0
v -48 -124 0
v -49 -125 0
v -50 -125 0
v -50 -124 0
v -49 -124 0
v -50 -125 0
v -51 -125 0
v -51 -124 0
v -50 -124 0
v -51 -125 0
v -52 -125 0
v -52 -124 0
v -51 -124 0
v -52 -125 0
v -53 -125 0
v -53 -124 0
v -52 -124 0
v -53 -125 0
v -54 -125 0
v -54 -124 0
v -53 -124 0
v -54 -125 0
v -55 -125 0
v -55 -124 0
v -54 -124 0
v -55 -125 0
v -56 -125 0
v -56 -124 0
v -55 -124 0
v -56 -125 0
v -57 -125 0
v -57 -124 0
v -56 -124 0
v -57 -125 0
v -58 -125 0
v -58 -124 0
v -57 -124 0
v -2 -126 0
v -3 -126 0
v -3 -125 0
v -2 -125 0
v -57 -126 0
v -58 -126 0
v -58 -125 0
v -57 -125 0
v -2 -127 0
v -3 -127 0
v -3 -126 0
v -2 -126 0
v -57 -127 0
v -58 -127 0
v -58 -126 0
v -57 -126 0
v 0 -128 0
v -1 -128 0
v -1 -127 0
v 0 -127 0
v -1 -128 0
v -2 -128 0
v -2 -127 0
v -1 -127 0
v -2 -128 0
v -3 -128 0
v -3 -127 0
v -2 -127 0
v -57 -128 0
v -58 -128 0
v -58 -127 0
v -57 -127 0
v -58 -128 0
v -59 -128 0
v -59 -127 0
v -58 -127 0
v -59 -128 0
v -60 -128 0
v -60 -127 0
v -59 -127 0
v -60 -128 0
v -61 -128 0
v -61 -127 0
v -60 -127 0
v -61 -128 0
v -62 -128 0
v -62 -127 0
v -61 -127 0
v -62 -128 0
v -63 -128 0
v -63 -127 0
v -62 -127 0
v 0 -132 0
v -1 -132 0
v -1 -131 0
v 0 -131 0
v -1 -132 0
v -2 -132 0
v -2 -131 0
v -1 -131 0
v -2 -132 0
v -3 -132 0
v -3 -131 0
v -2 -131 0
v -3 -132 0
v -4 -132 0
v -4 -131 0
v -3 -131 0
v -56 -132 0
v -57 -132 0
v -57 -131 0
v -56 -131 0
v -57 -132 0
v -58 -132 0
v -58 -131 0
v -57 -131 0
v -58 -132 0
v -59 -132 0
v -59 -131 0
v -58 -131 0
v -59 -132 0
v -60 -132 0
v -60 -131 0
v -59 -131 0
v -60 -132 0
v -61 -132 0
v -61 -131 0
v -60 -131 0
v -61 -132 0
v -62 -132 0
v -62 -131 0
v -61 -131 0
v -62 -132 0
v -63 -132 0
v -63 -131 0
v -62 -131 0
v 0 -133 0
v -1 -133 0
v -1 -132 0
v 0 -132 0
v -1 -133 0
v -2 -133 0
v -2 -132 0
v -1 -132 0
v -2 -133 0
v -3 -133 0
v -3 -132 0
v -2 -132 0
v -3 -133 0
v -4 -133 0
v -4 -132 0
v -3 -132 0
v -56 -133 0
v -57 -133 0
v -57 -132 0
v -56 -132 0
v -57 -133 0
v -58 -133 0
v -58 -132 0
v -57 -132 0
v 0 -134 0
v -1 -134 0
v -1 -133 0
v 0 -133 0
v -1 -134 0
v -2 -134 0
v -2 -133 0
v -1 -133 0
v -2 -134 0
v -3 -134 0
v -3 -133 0
v -2 -133 0
v -3 -134 0
v -4 -134 0
v -4 -133 0
v -3 -133 0
v -56 -134 0
v -57 -134 0
v -57 -133 0
v -56 -133 0
v -57 -134 0
v -58 -134 0
v -58 -133 0
v -57 -133 0
v 0 -135 0
v -1 -135 0
v -1 -134 0
v 0 -134 0
v -56 -135 0
v -57 -135 0
v -57 -134 0
v -56 -134 0
v -57 -135 0
v -58 -135 0
v -58 -134 0
v -57 -134 0
v 0 -136 0
v -1 -136 0
v -1 -135 0
v 0 -135 0
v -55 -136 0
v -56 -136 0
v -56 -135 0
v -55 -135 0
v -56 -136 0
v -57 -136 0
v -57 -135 0
v -56 -135 0
v -57 -136 0
v -58 -136 0
v -58 -135 0
v -57 -135 0
v 0 -137 0
v -1 -137 0
v -1 -136 0
v 0 -136 0
v -55 -137 0
v -56 -137 0
v -56 -136 0
v -55 -136 0
v -56 -137 0
v -57 -137 0
v -57 -136 0
v -56 -136 0
v -57 -137 0
v -58 -137 0
v -58 -136 0
v -57 -136 0
v 0 -138 0
v -1 -138 0
v -1 -137 0
v 0 -137 0
v -55 -138 0
v -56 -138 0
v -56 -137 0
v -55 -137 0
v -56 -138 0
v -57 -138 0
v -57 -137 0
v -56 -137 0
v -57 -138 0
v -58 -138 0
v -58 -137 0
v -57 -137 0
v 0 -139 0
v -1 -139 0
v -1 -138 0
v 0 -138 0
v -55 -139 0
v -56 -139 0
v -56 -138 0
v -55 -138 0
v -56 -139 0
v -57 -139 0
v -57 -138 0
v -56 -138 0
v -57 -139 0
v -58 -139 0
v -58 -138 0
v -57 -138 0
v 0 -140 0
v -1 -140 0
v -1 -139 0
v 0 -139 0
v -55 -140 0
v -56 -140 0
v -56 -139 0
v -55 -139 0
v -56 -140 0
v -57 -140 0
v -57 -139 0
v -56 -139 0
v -57 -140 0
v -58 -140 0
v -58 -139 0
v -57 -139 0
v 0 -141 0
v -1 -141 0
v -1 -140 0
v 0 -140 0
v -53 -141 0
v -54 -141 0
v -54 -140 0
v -53 -140 0
v -54 -141 0
v -55 -141 0
v -55 -140 0
v -54 -140 0
v -55 -141 0
v -56 -141 0
v -56 -140 0
v -55 -140 0
v -56 -141 0
v -57 -141 0
v -57 -140 0
v -56 -140 0
v -57 -141 0
v -58 -141 0
v -58 -140 0
v -57 -140 0
v 0 -142 0
v -1 -142 0
v -1 -141 0
v 0 -141 0
v -53 -142 0
v -54 -142 0
v -54 -141 0
v -53 -141 0
v -54 -142 0
v -55 -142 0
v -55 -141 0
v -54 -141 0
v -55 -142 0
v -56 -142 0
v -56 -141 0
v -55 -141 0
v -56 -142 0
v -57 -142 0
v -57 -141 0
v -56 -141 0
v -57 -142 0
v -58 -142 0
v -58 -141 0
v -57 -141 0
v 0 -143 0
v -1 -143 0
v -1 -142 0
v 0 -142 0
v -53 -143 0
v -54 -143 0
v -54 -142 0
v -53 -142 0
v -54 -143 0
v -55 -143 0
v -55 -142 0
v -54 -142 0
v -55 -143 0
v -56 -143 0
v -56 -142 0
v -55 -142 0
v -56 -143 0
v -57 -143 0
v -57 -142 0
v -56 -142 0
v -57 -143 0
v -58 -143 0
v -58 -142 0
v -57 -142 0
v 0 -144 0
v -1 -144 0
v -1 -143 0
v 0 -143 0
v -53 -144 0
v -54 -144 0
v -54 -143 0
v -53 -143 0
v -54 -144 0
v -55 -144 0
v -55 -143 0
v -54 -143 0
v -55 -144 0
v -56 -144 0
v -56 -143 0
v -55 -143 0
v -56 -144 0
v -57 -144 0
v -57 -143 0
v -56 -143 0
v -57 -144 0
v -58 -144 0
v -58 -143 0
v -57 -143 0
v 0 -145 0
v -1 -145 0
v -1 -144 0
v 0 -144 0
v -53 -145 0
v -54 -145 0
v -54 -144 0
v -53 -144 0
v -54 -145 0
v -55 -145 0
v -55 -144 0
v -54 -144 0
v -55 -145 0
v -56 -145 0
v -56 -144 0
v -55 -144 0
v -56 -145 0
v -57 -145 0
v -57 -144 0
v -56 -144 0
v -57 -145 0
v -58 -145 0
v -58 -144 0
v -57 -144 0
v 0 -146 0
v -1 -146 0
v -1 -145 0
v 0 -145 0
v -53 -146 0
v -54 -146 0
v -54 -145 0
v -53 -145 0
v -54 -146 0
v -55 -146 0
v -55 -145 0
v -54 -145 0
v -55 -146 0
v -56 -146 0
v -56 -145 0
v -55 -145 0
v -56 -146 0
v -57 -146 0
v -57 -145 0
v -56 -145 0
v -57 -146 0
v -58 -146 0
v -58 -145 0
v -57 -145 0
v 0 -147 0
v -1 -147 0
v -1 -146 0
v 0 -146 0
v -50 -147 0
v -51 -147 0
v -51 -146 0
v -50 -146 0
v -51 -147 0
v -52 -147 0
v -52 -146 0
v -51 -146 0
v -52 -147 0
v -53 -147 0
v -53 -146 0
v -52 -146 0
v -53 -147 0
v -54 -147 0
v -54 -146 0
v -53 -146 0
v -54 -147 0
v -55 -147 0
v -55 -146 0
v -54 -146 0
v -55 -147 0
v -56 -147 0
v -56 -146 0
v -55 -146 0
v -56 -147 0
v -57 -147 0
v -57 -146 0
v -56 -146 0
v -57 -147 0
v -58 -147 0
v -58 -146 0
v -57 -146 0
v 0 -148 0
v -1 -148 0
v -1 -147 0
v 0 -147 0
v -50 -148 0
v -51 -148 0
v -51 -147 0
v -50 -147 0
v -51 -148 0
v -52 -148 0
v -52 -147 0
v -51 -147 0
v -52 -148 0
v -53 -148 0
v -53 -147 0
v -52 -147 0
v -53 -148 0
v -54 -148 0
v -54 -147 0
v -53 -147 0
v -54 -148 0
v -55 -148 0
v -55 -147 0
v -54 -147 0
v -55 -148 0
v -56 -148 0
v -56 -147 0
v -55 -147 0
v -56 -148 0
v -57 -148 0
v -57 -147 0
v -56 -147 0
v -57 -148 0
v -58 -148 0
v -58 -147 0
v -57 -147 0
v 0 -149 0
v -1 -149 0
v -1 -148 0
v 0 -148 0
v -50 -149 0
v -51 -149 0
v -51 -148 0
v -50 -148 0
v -51 -149 0
v -52 -149 0
v -52 -148 0
v -51 -148 0
v -52 -149 0
v -53 -149 0
v -53 -148 0
v -52 -148 0
v -53 -149 0
v -54 -149 0
v -54 -148 0
v -53 -148 0
v -54 -149 0
v -55 -149 0
v -55 -148 0
v -54 -148 0
v -55 -149 0
v -56 -149 0
v -56 -148 0
v -55 -148 0
v -56 -149 0
v -57 -149 0
v -57 -148 0
v -56 -148 0
v -57 -149 0
v -58 -149 0
v -58 -148 0
v -57 -148 0
v 0 -150 0
v -1 -150 0
v -1 -149 0
v 0 -149 0
v -1 -150 0
v -2 -150 0
v -2 -149 0
v -1 -149 0
v -2 -150 0
v -3 -150 0
v -3 -149 0
v -2 -149 0
v -3 -150 0
v -4 -150 0
v -4 -149 0
v -3 -149 0
v -4 -150 0
v -5 -150 0
v -5 -149 0
v -4 -149 0
v -5 -150 0
v -6 -150 0
v -6 -149 0
v -5 -149 0
v -6 -150 0
v -7 -150 0
v -7 -149 0
v -6 -149 0
v -7 -150 0
v -8 -150 0
v -8 -149 0
v -7 -149 0
v -8 -150 0
v -9 -150 0
v -9 -149 0
v -8 -149 0
v -9 -150 0
v -10 -150 0
v -10 -149 0
v -9 -149 0
v -10 -150 0
v -11 -150 0
v -11 -149 0
v -10 -149 0
v -11 -150 0
v -12 -150 0
v -12 -149 0
v -11 -149 0
v -12 -150 0
v -13 -150 0
v -13 -149 0
v -12 -149 0
v -13 -150 0
v -14 -150 0
v -14 -149 0
v -13 -149 0
v -14 -150 0
v -15 -150 0
v -15 -149 0
v -14 -149 0
v -15 -150 0
v -16 -150 0
v -16 -149 0
v -15 -149 0
v -16 -150 0
v -17 -150 0
v -17 -149 0
v -16 -149 0
v -17 -150 0
v -18 -150 0
v -18 -149 0
v -17 -149 0
v -18 -150 0
v -19 -150 0
v -19 -149 0
v -18 -149 0
v -19 -150 0
v -20 -150 0
v -20 -149 0
v -19 -149 0
v -20 -150 0
v -21 -150 0
v -21 -149 0
v -20 -149 0
v -21 -150 0
v -22 -150 0
v -22 -149 0
v -21 -149 0
v -22 -150 0
v -23 -150 0
v -23 -149 0
v -22 -149 0
v -23 -150 0
v -24 -150 0
v -24 -149 0
v -23 -149 0
v -24 -150 0
v -25 -150 0
v -25 -149 0
v -24 -149 0
v -25 -150 0
v -26 -150 0
v -26 -149 0
v -25 -149 0
v -26 -150 0
v -27 -150 0
v -27 -149 0
v -26 -149 0
v -27 -150 0
v -28 -150 0
v -28 -149 0
v -27 -149 0
v -28 -150 0
v -29 -150 0
v -29 -149 0
v -28 -149 0
v -29 -150 0
v -30 -150 0
v -30 -149 0
v -29 -149 0
v -30 -150 0
v -31 -150 0
v -31 -149 0
v -30 -149 0
v -31 -150 0
v -32 -150 0
v -32 -149 0
v -31 -149 0
v -32 -150 0
v -33 -150 0
v -33 -149 0
v -32 -149 0
v -33 -150 0
v -34 -150 0
v -34 -149 0
v -33 -149 0
v -34 -150 0
v -35 -150 0
v -35 -149 0
v -34 -149 0
v -35 -150 0
v -36 -150 0
v -36 -149 0
v -35 -149 0
v -36 -150 0
v -37 -150 0
v -37 -149 0
v -36 -149 0
v -37 -150 0
v -38 -150 0
v -38 -149 0
v -37 -149 0
v -38 -150 0
v -39 -150 0
v -39 -149 0
v -38 -149 0
v -39 -150 0
v -40 -150 0
v -40 -149 0
v -39 -149 0
v -40 -150 0
v -41 -150 0
v -41 -149 0
v -40 -149 0
v -44 -150 0
v -45 -150 0
v -45 -149 0
v -44 -149 0
v -45 -150 0
v -46 -150 0
v -46 -149 0
v -45 -149 0
v -46 -150 0
v -47 -150 0
v -47 -149 0
v -46 -149 0
v -47 -150 0
v -48 -150 0
v -48 -149 0
v -47 -149 0
v -48 -150 0
v -49 -150 0
v -49 -149 0
v -48 -149 0
v -49 -150 0
v -50 -150 0
v -50 -149 0
v -49 -149 0
v -50 -150 0
v -51 -150 0
v -51 -149 0
v -50 -149 0
v -51 -150 0
v -52 -150 0
v -52 -149 0
v -51 -149 0
v -52 -150 0
v -53 -150 0
v -53 -149 0
v -52 -149 0
v -53 -150 0
v -54 -150 0
v -54 -149 0
v -53 -149 0
v -54 -150 0
v -55 -150 0
v -55 -149 0
v -54 -149 0
v -55 -150 0
v -56 -150 0
v -56 -149 0
v -55 -149 0
v -56 -150 0
v -57 -150 0
v -57 -149 0
v -56 -149 0
v -57 -150 0
v -58 -150 0
v -58 -149 0
v -57 -149 0

# Texture cooridinates (Count = 16)
vt 0 0
vt 0.02857143 0
vt 0.02857143 0.04347825
vt 0 0.04347825
vt 0.1714286 0
vt 0.2 0
vt 0.2 0.04347825
vt 0.1714286 0.04347825
vt 0.1714286 0.3913044
vt 0.2 0.3913044
vt 0.2 0.4347826
vt 0.1714286 0.4347826
vt 0.2 0.0869565
vt 0.2285714 0.0869565
vt 0.2285714 0.1304348
vt 0.2 0.1304348

# Normal
vn 0 0 -1

# Mesh description
g Sci-FiLevelTwo_mesh_0004

# Faces
f 1/1/1 2/2/1 3/3/1 4/4/1
f 5/1/1 6/2/1 7/3/1 8/4/1
f 9/1/1 10/2/1 11/3/1 12/4/1
f 13/1/1 14/2/1 15/3/1 16/4/1
f 17/1/1 18/2/1 19/3/1 20/4/1
f 21/1/1 22/2/1 23/3/1 24/4/1
f 25/1/1 26/2/1 27/3/1 28/4/1
f 29/1/1 30/2/1 31/3/1 32/4/1
f 33/1/1 34/2/1 35/3/1 36/4/1
f 37/1/1 38/2/1 39/3/1 40/4/1
f 41/1/1 42/2/1 43/3/1 44/4/1
f 45/1/1 46/2/1 47/3/1 48/4/1
f 49/1/1 50/2/1 51/3/1 52/4/1
f 53/1/1 54/2/1 55/3/1 56/4/1
f 57/1/1 58/2/1 59/3/1 60/4/1
f 61/1/1 62/2/1 63/3/1 64/4/1
f 65/1/1 66/2/1 67/3/1 68/4/1
f 69/1/1 70/2/1 71/3/1 72/4/1
f 73/1/1 74/2/1 75/3/1 76/4/1
f 77/1/1 78/2/1 79/3/1 80/4/1
f 81/1/1 82/2/1 83/3/1 84/4/1
f 85/1/1 86/2/1 87/3/1 88/4/1
f 89/1/1 90/2/1 91/3/1 92/4/1
f 93/1/1 94/2/1 95/3/1 96/4/1
f 97/1/1 98/2/1 99/3/1 100/4/1
f 101/1/1 102/2/1 103/3/1 104/4/1
f 105/1/1 106/2/1 107/3/1 108/4/1
f 109/1/1 110/2/1 111/3/1 112/4/1
f 113/1/1 114/2/1 115/3/1 116/4/1
f 117/1/1 118/2/1 119/3/1 120/4/1
f 121/1/1 122/2/1 123/3/1 124/4/1
f 125/1/1 126/2/1 127/3/1 128/4/1
f 129/1/1 130/2/1 131/3/1 132/4/1
f 133/1/1 134/2/1 135/3/1 136/4/1
f 137/1/1 138/2/1 139/3/1 140/4/1
f 141/1/1 142/2/1 143/3/1 144/4/1
f 145/1/1 146/2/1 147/3/1 148/4/1
f 149/1/1 150/2/1 151/3/1 152/4/1
f 153/1/1 154/2/1 155/3/1 156/4/1
f 157/1/1 158/2/1 159/3/1 160/4/1
f 161/1/1 162/2/1 163/3/1 164/4/1
f 165/1/1 166/2/1 167/3/1 168/4/1
f 169/1/1 170/2/1 171/3/1 172/4/1
f 173/1/1 174/2/1 175/3/1 176/4/1
f 177/1/1 178/2/1 179/3/1 180/4/1
f 181/1/1 182/2/1 183/3/1 184/4/1
f 185/1/1 186/2/1 187/3/1 188/4/1
f 189/1/1 190/2/1 191/3/1 192/4/1
f 193/1/1 194/2/1 195/3/1 196/4/1
f 197/1/1 198/2/1 199/3/1 200/4/1
f 201/1/1 202/2/1 203/3/1 204/4/1
f 205/1/1 206/2/1 207/3/1 208/4/1
f 209/1/1 210/2/1 211/3/1 212/4/1
f 213/1/1 214/2/1 215/3/1 216/4/1
f 217/1/1 218/2/1 219/3/1 220/4/1
f 221/1/1 222/2/1 223/3/1 224/4/1
f 225/1/1 226/2/1 227/3/1 228/4/1
f 229/1/1 230/2/1 231/3/1 232/4/1
f 233/1/1 234/2/1 235/3/1 236/4/1
f 237/1/1 238/2/1 239/3/1 240/4/1
f 241/1/1 242/2/1 243/3/1 244/4/1
f 245/1/1 246/2/1 247/3/1 248/4/1
f 249/1/1 250/2/1 251/3/1 252/4/1
f 253/1/1 254/2/1 255/3/1 256/4/1
f 257/1/1 258/2/1 259/3/1 260/4/1
f 261/1/1 262/2/1 263/3/1 264/4/1
f 265/1/1 266/2/1 267/3/1 268/4/1
f 269/1/1 270/2/1 271/3/1 272/4/1
f 273/5/1 274/6/1 275/7/1 276/8/1
f 277/1/1 278/2/1 279/3/1 280/4/1
f 281/1/1 282/2/1 283/3/1 284/4/1
f 285/1/1 286/2/1 287/3/1 288/4/1
f 289/9/1 290/10/1 291/11/1 292/12/1
f 293/1/1 294/2/1 295/3/1 296/4/1
f 297/1/1 298/2/1 299/3/1 300/4/1
f 301/1/1 302/2/1 303/3/1 304/4/1
f 305/1/1 306/2/1 307/3/1 308/4/1
f 309/1/1 310/2/1 311/3/1 312/4/1
f 313/1/1 314/2/1 315/3/1 316/4/1
f 317/5/1 318/6/1 319/7/1 320/8/1
f 321/1/1 322/2/1 323/3/1 324/4/1
f 325/1/1 326/2/1 327/3/1 328/4/1
f 329/1/1 330/2/1 331/3/1 332/4/1
f 333/9/1 334/10/1 335/11/1 336/12/1
f 337/1/1 338/2/1 339/3/1 340/4/1
f 341/1/1 342/2/1 343/3/1 344/4/1
f 345/1/1 346/2/1 347/3/1 348/4/1
f 349/1/1 350/2/1 351/3/1 352/4/1
f 353/1/1 354/2/1 355/3/1 356/4/1
f 357/9/1 358/10/1 359/11/1 360/12/1
f 361/1/1 362/2/1 363/3/1 364/4/1
f 365/1/1 366/2/1 367/3/1 368/4/1
f 369/1/1 370/2/1 371/3/1 372/4/1
f 373/1/1 374/2/1 375/3/1 376/4/1
f 377/1/1 378/2/1 379/3/1 380/4/1
f 381/1/1 382/2/1 383/3/1 384/4/1
f 385/9/1 386/10/1 387/11/1 388/12/1
f 389/1/1 390/2/1 391/3/1 392/4/1
f 393/1/1 394/2/1 395/3/1 396/4/1
f 397/1/1 398/2/1 399/3/1 400/4/1
f 401/9/1 402/10/1 403/11/1 404/12/1
f 405/1/1 406/2/1 407/3/1 408/4/1
f 409/1/1 410/2/1 411/3/1 412/4/1
f 413/1/1 414/2/1 415/3/1 416/4/1
f 417/9/1 418/10/1 419/11/1 420/12/1
f 421/1/1 422/2/1 423/3/1 424/4/1
f 425/1/1 426/2/1 427/3/1 428/4/1
f 429/1/1 430/2/1 431/3/1 432/4/1
f 433/9/1 434/10/1 435/11/1 436/12/1
f 437/1/1 438/2/1 439/3/1 440/4/1
f 441/1/1 442/2/1 443/3/1 444/4/1
f 445/1/1 446/2/1 447/3/1 448/4/1
f 449/9/1 450/10/1 451/11/1 452/12/1
f 453/1/1 454/2/1 455/3/1 456/4/1
f 457/1/1 458/2/1 459/3/1 460/4/1
f 461/1/1 462/2/1 463/3/1 464/4/1
f 465/9/1 466/10/1 467/11/1 468/12/1
f 469/9/1 470/10/1 471/11/1 472/12/1
f 473/9/1 474/10/1 475/11/1 476/12/1
f 477/1/1 478/2/1 479/3/1 480/4/1
f 481/1/1 482/2/1 483/3/1 484/4/1
f 485/1/1 486/2/1 487/3/1 488/4/1
f 489/9/1 490/10/1 491/11/1 492/12/1
f 493/5/1 494/6/1 495/7/1 496/8/1
f 497/5/1 498/6/1 499/7/1 500/8/1
f 501/1/1 502/2/1 503/3/1 504/4/1
f 505/1/1 506/2/1 507/3/1 508/4/1
f 509/1/1 510/2/1 511/3/1 512/4/1
f 513/9/1 514/10/1 515/11/1 516/12/1
f 517/5/1 518/6/1 519/7/1 520/8/1
f 521/5/1 522/6/1 523/7/1 524/8/1
f 525/1/1 526/2/1 527/3/1 528/4/1
f 529/1/1 530/2/1 531/3/1 532/4/1
f 533/1/1 534/2/1 535/3/1 536/4/1
f 537/9/1 538/10/1 539/11/1 540/12/1
f 541/5/1 542/6/1 543/7/1 544/8/1
f 545/5/1 546/6/1 547/7/1 548/8/1
f 549/1/1 550/2/1 551/3/1 552/4/1
f 553/1/1 554/2/1 555/3/1 556/4/1
f 557/1/1 558/2/1 559/3/1 560/4/1
f 561/9/1 562/10/1 563/11/1 564/12/1
f 565/5/1 566/6/1 567/7/1 568/8/1
f 569/5/1 570/6/1 571/7/1 572/8/1
f 573/5/1 574/6/1 575/7/1 576/8/1
f 577/1/1 578/2/1 579/3/1 580/4/1
f 581/1/1 582/2/1 583/3/1 584/4/1
f 585/9/1 586/10/1 587/11/1 588/12/1
f 589/5/1 590/6/1 591/7/1 592/8/1
f 593/5/1 594/6/1 595/7/1 596/8/1
f 597/5/1 598/6/1 599/7/1 600/8/1
f 601/1/1 602/2/1 603/3/1 604/4/1
f 605/1/1 606/2/1 607/3/1 608/4/1
f 609/9/1 610/10/1 611/11/1 612/12/1
f 613/9/1 614/10/1 615/11/1 616/12/1
f 617/9/1 618/10/1 619/11/1 620/12/1
f 621/9/1 622/10/1 623/11/1 624/12/1
f 625/5/1 626/6/1 627/7/1 628/8/1
f 629/5/1 630/6/1 631/7/1 632/8/1
f 633/1/1 634/2/1 635/3/1 636/4/1
f 637/1/1 638/2/1 639/3/1 640/4/1
f 641/1/1 642/2/1 643/3/1 644/4/1
f 645/9/1 646/10/1 647/11/1 648/12/1
f 649/5/1 650/6/1 651/7/1 652/8/1
f 653/5/1 654/6/1 655/7/1 656/8/1
f 657/5/1 658/6/1 659/7/1 660/8/1
f 661/5/1 662/6/1 663/7/1 664/8/1
f 665/5/1 666/6/1 667/7/1 668/8/1
f 669/1/1 670/2/1 671/3/1 672/4/1
f 673/1/1 674/2/1 675/3/1 676/4/1
f 677/1/1 678/2/1 679/3/1 680/4/1
f 681/9/1 682/10/1 683/11/1 684/12/1
f 685/5/1 686/6/1 687/7/1 688/8/1
f 689/5/1 690/6/1 691/7/1 692/8/1
f 693/5/1 694/6/1 695/7/1 696/8/1
f 697/5/1 698/6/1 699/7/1 700/8/1
f 701/5/1 702/6/1 703/7/1 704/8/1
f 705/1/1 706/2/1 707/3/1 708/4/1
f 709/1/1 710/2/1 711/3/1 712/4/1
f 713/1/1 714/2/1 715/3/1 716/4/1
f 717/1/1 718/2/1 719/3/1 720/4/1
f 721/1/1 722/2/1 723/3/1 724/4/1
f 725/1/1 726/2/1 727/3/1 728/4/1
f 729/1/1 730/2/1 731/3/1 732/4/1
f 733/1/1 734/2/1 735/3/1 736/4/1
f 737/1/1 738/2/1 739/3/1 740/4/1
f 741/1/1 742/2/1 743/3/1 744/4/1
f 745/1/1 746/2/1 747/3/1 748/4/1
f 749/1/1 750/2/1 751/3/1 752/4/1
f 753/1/1 754/2/1 755/3/1 756/4/1
f 757/1/1 758/2/1 759/3/1 760/4/1
f 761/1/1 762/2/1 763/3/1 764/4/1
f 765/1/1 766/2/1 767/3/1 768/4/1
f 769/1/1 770/2/1 771/3/1 772/4/1
f 773/1/1 774/2/1 775/3/1 776/4/1
f 777/1/1 778/2/1 779/3/1 780/4/1
f 781/1/1 782/2/1 783/3/1 784/4/1
f 785/1/1 786/2/1 787/3/1 788/4/1
f 789/1/1 790/2/1 791/3/1 792/4/1
f 793/1/1 794/2/1 795/3/1 796/4/1
f 797/1/1 798/2/1 799/3/1 800/4/1
f 801/1/1 802/2/1 803/3/1 804/4/1
f 805/1/1 806/2/1 807/3/1 808/4/1
f 809/1/1 810/2/1 811/3/1 812/4/1
f 813/1/1 814/2/1 815/3/1 816/4/1
f 817/1/1 818/2/1 819/3/1 820/4/1
f 821/1/1 822/2/1 823/3/1 824/4/1
f 825/1/1 826/2/1 827/3/1 828/4/1
f 829/1/1 830/2/1 831/3/1 832/4/1
f 833/1/1 834/2/1 835/3/1 836/4/1
f 837/1/1 838/2/1 839/3/1 840/4/1
f 841/1/1 842/2/1 843/3/1 844/4/1
f 845/1/1 846/2/1 847/3/1 848/4/1
f 849/1/1 850/2/1 851/3/1 852/4/1
f 853/1/1 854/2/1 855/3/1 856/4/1
f 857/1/1 858/2/1 859/3/1 860/4/1
f 861/1/1 862/2/1 863/3/1 864/4/1
f 865/1/1 866/2/1 867/3/1 868/4/1
f 869/13/1 870/14/1 871/15/1 872/16/1
f 873/13/1 874/14/1 875/15/1 876/16/1
f 877/13/1 878/14/1 879/15/1 880/16/1
f 881/13/1 882/14/1 883/15/1 884/16/1
f 885/13/1 886/14/1 887/15/1 888/16/1
f 889/1/1 890/2/1 891/3/1 892/4/1
f 893/1/1 894/2/1 895/3/1 896/4/1
f 897/1/1 898/2/1 899/3/1 900/4/1
f 901/5/1 902/6/1 903/7/1 904/8/1
f 905/5/1 906/6/1 907/7/1 908/8/1
f 909/5/1 910/6/1 911/7/1 912/8/1
f 913/5/1 914/6/1 915/7/1 916/8/1
f 917/5/1 918/6/1 919/7/1 920/8/1
f 921/5/1 922/6/1 923/7/1 924/8/1
f 925/1/1 926/2/1 927/3/1 928/4/1
f 929/1/1 930/2/1 931/3/1 932/4/1

