# Tiled2Unity generated file. Do not modify by hand.
# Wavefront file for 'Sci-FiLevelThree_mesh_0002.obj'

# Vertices (Count = 144)
v -18 -98 0
v -19 -98 0
v -19 -97 0
v -18 -97 0
v -19 -98 0
v -20 -98 0
v -20 -97 0
v -19 -97 0
v -20 -98 0
v -21 -98 0
v -21 -97 0
v -20 -97 0
v -21 -98 0
v -22 -98 0
v -22 -97 0
v -21 -97 0
v -22 -98 0
v -23 -98 0
v -23 -97 0
v -22 -97 0
v -23 -98 0
v -24 -98 0
v -24 -97 0
v -23 -97 0
v -24 -98 0
v -25 -98 0
v -25 -97 0
v -24 -97 0
v -25 -98 0
v -26 -98 0
v -26 -97 0
v -25 -97 0
v -26 -98 0
v -27 -98 0
v -27 -97 0
v -26 -97 0
v -27 -98 0
v -28 -98 0
v -28 -97 0
v -27 -97 0
v -28 -98 0
v -29 -98 0
v -29 -97 0
v -28 -97 0
v -29 -98 0
v -30 -98 0
v -30 -97 0
v -29 -97 0
v -30 -98 0
v -31 -98 0
v -31 -97 0
v -30 -97 0
v -31 -98 0
v -32 -98 0
v -32 -97 0
v -31 -97 0
v -32 -98 0
v -33 -98 0
v -33 -97 0
v -32 -97 0
v -33 -98 0
v -34 -98 0
v -34 -97 0
v -33 -97 0
v -18 -99 0
v -19 -99 0
v -19 -98 0
v -18 -98 0
v -18 -100 0
v -19 -100 0
v -19 -99 0
v -18 -99 0
v -18 -101 0
v -19 -101 0
v -19 -100 0
v -18 -100 0
v -18 -102 0
v -19 -102 0
v -19 -101 0
v -18 -101 0
v -18 -103 0
v -19 -103 0
v -19 -102 0
v -18 -102 0
v -19 -103 0
v -20 -103 0
v -20 -102 0
v -19 -102 0
v -20 -103 0
v -21 -103 0
v -21 -102 0
v -20 -102 0
v -21 -103 0
v -22 -103 0
v -22 -102 0
v -21 -102 0
v -22 -103 0
v -23 -103 0
v -23 -102 0
v -22 -102 0
v -23 -103 0
v -24 -103 0
v -24 -102 0
v -23 -102 0
v -24 -103 0
v -25 -103 0
v -25 -102 0
v -24 -102 0
v -25 -103 0
v -26 -103 0
v -26 -102 0
v -25 -102 0
v -26 -103 0
v -27 -103 0
v -27 -102 0
v -26 -102 0
v -27 -103 0
v -28 -103 0
v -28 -102 0
v -27 -102 0
v -28 -103 0
v -29 -103 0
v -29 -102 0
v -28 -102 0
v -29 -103 0
v -30 -103 0
v -30 -102 0
v -29 -102 0
v -30 -103 0
v -31 -103 0
v -31 -102 0
v -30 -102 0
v -31 -103 0
v -32 -103 0
v -32 -102 0
v -31 -102 0
v -32 -103 0
v -33 -103 0
v -33 -102 0
v -32 -102 0
v -33 -103 0
v -34 -103 0
v -34 -102 0
v -33 -102 0

# Texture cooridinates (Count = 4)
vt 0.02857143 0.3913044
vt 0.05714286 0.3913044
vt 0.05714286 0.4347826
vt 0.02857143 0.4347826

# Normal
vn 0 0 -1

# Mesh description
g Sci-FiLevelThree_mesh_0002

# Faces
f 1/1/1 2/2/1 3/3/1 4/4/1
f 5/1/1 6/2/1 7/3/1 8/4/1
f 9/1/1 10/2/1 11/3/1 12/4/1
f 13/1/1 14/2/1 15/3/1 16/4/1
f 17/1/1 18/2/1 19/3/1 20/4/1
f 21/1/1 22/2/1 23/3/1 24/4/1
f 25/1/1 26/2/1 27/3/1 28/4/1
f 29/1/1 30/2/1 31/3/1 32/4/1
f 33/1/1 34/2/1 35/3/1 36/4/1
f 37/1/1 38/2/1 39/3/1 40/4/1
f 41/1/1 42/2/1 43/3/1 44/4/1
f 45/1/1 46/2/1 47/3/1 48/4/1
f 49/1/1 50/2/1 51/3/1 52/4/1
f 53/1/1 54/2/1 55/3/1 56/4/1
f 57/1/1 58/2/1 59/3/1 60/4/1
f 61/1/1 62/2/1 63/3/1 64/4/1
f 65/1/1 66/2/1 67/3/1 68/4/1
f 69/1/1 70/2/1 71/3/1 72/4/1
f 73/1/1 74/2/1 75/3/1 76/4/1
f 77/1/1 78/2/1 79/3/1 80/4/1
f 81/1/1 82/2/1 83/3/1 84/4/1
f 85/1/1 86/2/1 87/3/1 88/4/1
f 89/1/1 90/2/1 91/3/1 92/4/1
f 93/1/1 94/2/1 95/3/1 96/4/1
f 97/1/1 98/2/1 99/3/1 100/4/1
f 101/1/1 102/2/1 103/3/1 104/4/1
f 105/1/1 106/2/1 107/3/1 108/4/1
f 109/1/1 110/2/1 111/3/1 112/4/1
f 113/1/1 114/2/1 115/3/1 116/4/1
f 117/1/1 118/2/1 119/3/1 120/4/1
f 121/1/1 122/2/1 123/3/1 124/4/1
f 125/1/1 126/2/1 127/3/1 128/4/1
f 129/1/1 130/2/1 131/3/1 132/4/1
f 133/1/1 134/2/1 135/3/1 136/4/1
f 137/1/1 138/2/1 139/3/1 140/4/1
f 141/1/1 142/2/1 143/3/1 144/4/1

