# Tiled2Unity generated file. Do not modify by hand.
# Wavefront file for 'Sci-FiLevelThree_mesh_0005.obj'

# Vertices (Count = 140)
v -141 -122 0
v -142 -122 0
v -142 -121 0
v -141 -121 0
v -142 -122 0
v -143 -122 0
v -143 -121 0
v -142 -121 0
v -143 -122 0
v -144 -122 0
v -144 -121 0
v -143 -121 0
v -144 -122 0
v -145 -122 0
v -145 -121 0
v -144 -121 0
v -145 -122 0
v -146 -122 0
v -146 -121 0
v -145 -121 0
v -146 -122 0
v -147 -122 0
v -147 -121 0
v -146 -121 0
v -147 -122 0
v -148 -122 0
v -148 -121 0
v -147 -121 0
v -148 -122 0
v -149 -122 0
v -149 -121 0
v -148 -121 0
v -149 -122 0
v -150 -122 0
v -150 -121 0
v -149 -121 0
v -104 -124 0
v -105 -124 0
v -105 -123 0
v -104 -123 0
v -105 -124 0
v -106 -124 0
v -106 -123 0
v -105 -123 0
v -106 -124 0
v -107 -124 0
v -107 -123 0
v -106 -123 0
v -107 -124 0
v -108 -124 0
v -108 -123 0
v -107 -123 0
v -108 -124 0
v -109 -124 0
v -109 -123 0
v -108 -123 0
v -109 -124 0
v -110 -124 0
v -110 -123 0
v -109 -123 0
v -113 -124 0
v -114 -124 0
v -114 -123 0
v -113 -123 0
v -114 -124 0
v -115 -124 0
v -115 -123 0
v -114 -123 0
v -115 -124 0
v -116 -124 0
v -116 -123 0
v -115 -123 0
v -116 -124 0
v -117 -124 0
v -117 -123 0
v -116 -123 0
v -117 -124 0
v -118 -124 0
v -118 -123 0
v -117 -123 0
v -118 -124 0
v -119 -124 0
v -119 -123 0
v -118 -123 0
v -119 -124 0
v -120 -124 0
v -120 -123 0
v -119 -123 0
v -120 -124 0
v -121 -124 0
v -121 -123 0
v -120 -123 0
v -121 -124 0
v -122 -124 0
v -122 -123 0
v -121 -123 0
v -122 -124 0
v -123 -124 0
v -123 -123 0
v -122 -123 0
v -123 -124 0
v -124 -124 0
v -124 -123 0
v -123 -123 0
v -124 -124 0
v -125 -124 0
v -125 -123 0
v -124 -123 0
v -125 -124 0
v -126 -124 0
v -126 -123 0
v -125 -123 0
v -126 -124 0
v -127 -124 0
v -127 -123 0
v -126 -123 0
v -127 -124 0
v -128 -124 0
v -128 -123 0
v -127 -123 0
v -128 -124 0
v -129 -124 0
v -129 -123 0
v -128 -123 0
v -129 -124 0
v -130 -124 0
v -130 -123 0
v -129 -123 0
v -130 -124 0
v -131 -124 0
v -131 -123 0
v -130 -123 0
v -131 -124 0
v -132 -124 0
v -132 -123 0
v -131 -123 0
v -132 -124 0
v -133 -124 0
v -133 -123 0
v -132 -123 0

# Texture cooridinates (Count = 8)
vt 0.5537701 0.6144578
vt 0.5735476 0.6144578
vt 0.5735476 0.6626506
vt 0.5537701 0.6626506
vt 0 0.9036145
vt 0.0197775 0.9036145
vt 0.0197775 0.9518073
vt 0 0.9518073

# Normal
vn 0 0 -1

# Mesh description
g Sci-FiLevelThree_mesh_0005

# Faces
f 1/1/1 2/2/1 3/3/1 4/4/1
f 5/1/1 6/2/1 7/3/1 8/4/1
f 9/1/1 10/2/1 11/3/1 12/4/1
f 13/1/1 14/2/1 15/3/1 16/4/1
f 17/1/1 18/2/1 19/3/1 20/4/1
f 21/1/1 22/2/1 23/3/1 24/4/1
f 25/1/1 26/2/1 27/3/1 28/4/1
f 29/1/1 30/2/1 31/3/1 32/4/1
f 33/1/1 34/2/1 35/3/1 36/4/1
f 37/5/1 38/6/1 39/7/1 40/8/1
f 41/5/1 42/6/1 43/7/1 44/8/1
f 45/5/1 46/6/1 47/7/1 48/8/1
f 49/5/1 50/6/1 51/7/1 52/8/1
f 53/5/1 54/6/1 55/7/1 56/8/1
f 57/5/1 58/6/1 59/7/1 60/8/1
f 61/5/1 62/6/1 63/7/1 64/8/1
f 65/5/1 66/6/1 67/7/1 68/8/1
f 69/5/1 70/6/1 71/7/1 72/8/1
f 73/5/1 74/6/1 75/7/1 76/8/1
f 77/5/1 78/6/1 79/7/1 80/8/1
f 81/5/1 82/6/1 83/7/1 84/8/1
f 85/5/1 86/6/1 87/7/1 88/8/1
f 89/5/1 90/6/1 91/7/1 92/8/1
f 93/5/1 94/6/1 95/7/1 96/8/1
f 97/5/1 98/6/1 99/7/1 100/8/1
f 101/5/1 102/6/1 103/7/1 104/8/1
f 105/5/1 106/6/1 107/7/1 108/8/1
f 109/5/1 110/6/1 111/7/1 112/8/1
f 113/5/1 114/6/1 115/7/1 116/8/1
f 117/5/1 118/6/1 119/7/1 120/8/1
f 121/5/1 122/6/1 123/7/1 124/8/1
f 125/5/1 126/6/1 127/7/1 128/8/1
f 129/5/1 130/6/1 131/7/1 132/8/1
f 133/5/1 134/6/1 135/7/1 136/8/1
f 137/5/1 138/6/1 139/7/1 140/8/1

