# Tiled2Unity generated file. Do not modify by hand.
# Wavefront file for 'Sci-FiLevelThree_mesh_0004.obj'

# Vertices (Count = 412)
v -104 -122 0
v -105 -122 0
v -105 -121 0
v -104 -121 0
v -105 -122 0
v -106 -122 0
v -106 -121 0
v -105 -121 0
v -106 -122 0
v -107 -122 0
v -107 -121 0
v -106 -121 0
v -107 -122 0
v -108 -122 0
v -108 -121 0
v -107 -121 0
v -108 -122 0
v -109 -122 0
v -109 -121 0
v -108 -121 0
v -110 -122 0
v -111 -122 0
v -111 -121 0
v -110 -121 0
v -111 -122 0
v -112 -122 0
v -112 -121 0
v -111 -121 0
v -112 -122 0
v -113 -122 0
v -113 -121 0
v -112 -121 0
v -113 -122 0
v -114 -122 0
v -114 -121 0
v -113 -121 0
v -114 -122 0
v -115 -122 0
v -115 -121 0
v -114 -121 0
v -115 -122 0
v -116 -122 0
v -116 -121 0
v -115 -121 0
v -116 -122 0
v -117 -122 0
v -117 -121 0
v -116 -121 0
v -117 -122 0
v -118 -122 0
v -118 -121 0
v -117 -121 0
v -118 -122 0
v -119 -122 0
v -119 -121 0
v -118 -121 0
v -119 -122 0
v -120 -122 0
v -120 -121 0
v -119 -121 0
v -120 -122 0
v -121 -122 0
v -121 -121 0
v -120 -121 0
v -121 -122 0
v -122 -122 0
v -122 -121 0
v -121 -121 0
v -122 -122 0
v -123 -122 0
v -123 -121 0
v -122 -121 0
v -123 -122 0
v -124 -122 0
v -124 -121 0
v -123 -121 0
v -104 -123 0
v -105 -123 0
v -105 -122 0
v -104 -122 0
v -105 -123 0
v -106 -123 0
v -106 -122 0
v -105 -122 0
v -106 -123 0
v -107 -123 0
v -107 -122 0
v -106 -122 0
v -107 -123 0
v -108 -123 0
v -108 -122 0
v -107 -122 0
v -108 -123 0
v -109 -123 0
v -109 -122 0
v -108 -122 0
v -109 -123 0
v -110 -123 0
v -110 -122 0
v -109 -122 0
v -110 -123 0
v -111 -123 0
v -111 -122 0
v -110 -122 0
v -111 -123 0
v -112 -123 0
v -112 -122 0
v -111 -122 0
v -112 -123 0
v -113 -123 0
v -113 -122 0
v -112 -122 0
v -113 -123 0
v -114 -123 0
v -114 -122 0
v -113 -122 0
v -114 -123 0
v -115 -123 0
v -115 -122 0
v -114 -122 0
v -115 -123 0
v -116 -123 0
v -116 -122 0
v -115 -122 0
v -116 -123 0
v -117 -123 0
v -117 -122 0
v -116 -122 0
v -117 -123 0
v -118 -123 0
v -118 -122 0
v -117 -122 0
v -118 -123 0
v -119 -123 0
v -119 -122 0
v -118 -122 0
v -119 -123 0
v -120 -123 0
v -120 -122 0
v -119 -122 0
v -120 -123 0
v -121 -123 0
v -121 -122 0
v -120 -122 0
v -121 -123 0
v -122 -123 0
v -122 -122 0
v -121 -122 0
v -122 -123 0
v -123 -123 0
v -123 -122 0
v -122 -122 0
v -123 -123 0
v -124 -123 0
v -124 -122 0
v -123 -122 0
v -124 -123 0
v -125 -123 0
v -125 -122 0
v -124 -122 0
v -125 -123 0
v -126 -123 0
v -126 -122 0
v -125 -122 0
v -126 -123 0
v -127 -123 0
v -127 -122 0
v -126 -122 0
v -127 -123 0
v -128 -123 0
v -128 -122 0
v -127 -122 0
v -128 -123 0
v -129 -123 0
v -129 -122 0
v -128 -122 0
v -129 -123 0
v -130 -123 0
v -130 -122 0
v -129 -122 0
v -130 -123 0
v -131 -123 0
v -131 -122 0
v -130 -122 0
v -131 -123 0
v -132 -123 0
v -132 -122 0
v -131 -122 0
v -132 -123 0
v -133 -123 0
v -133 -122 0
v -132 -122 0
v -133 -123 0
v -134 -123 0
v -134 -122 0
v -133 -122 0
v -134 -123 0
v -135 -123 0
v -135 -122 0
v -134 -122 0
v -135 -123 0
v -136 -123 0
v -136 -122 0
v -135 -122 0
v -136 -123 0
v -137 -123 0
v -137 -122 0
v -136 -122 0
v -137 -123 0
v -138 -123 0
v -138 -122 0
v -137 -122 0
v -138 -123 0
v -139 -123 0
v -139 -122 0
v -138 -122 0
v -139 -123 0
v -140 -123 0
v -140 -122 0
v -139 -122 0
v -140 -123 0
v -141 -123 0
v -141 -122 0
v -140 -122 0
v -141 -123 0
v -142 -123 0
v -142 -122 0
v -141 -122 0
v -142 -123 0
v -143 -123 0
v -143 -122 0
v -142 -122 0
v -143 -123 0
v -144 -123 0
v -144 -122 0
v -143 -122 0
v -144 -123 0
v -145 -123 0
v -145 -122 0
v -144 -122 0
v -145 -123 0
v -146 -123 0
v -146 -122 0
v -145 -122 0
v -146 -123 0
v -147 -123 0
v -147 -122 0
v -146 -122 0
v -147 -123 0
v -148 -123 0
v -148 -122 0
v -147 -122 0
v -148 -123 0
v -149 -123 0
v -149 -122 0
v -148 -122 0
v -149 -123 0
v -150 -123 0
v -150 -122 0
v -149 -122 0
v -110 -124 0
v -111 -124 0
v -111 -123 0
v -110 -123 0
v -111 -124 0
v -112 -124 0
v -112 -123 0
v -111 -123 0
v -112 -124 0
v -113 -124 0
v -113 -123 0
v -112 -123 0
v -133 -124 0
v -134 -124 0
v -134 -123 0
v -133 -123 0
v -134 -124 0
v -135 -124 0
v -135 -123 0
v -134 -123 0
v -135 -124 0
v -136 -124 0
v -136 -123 0
v -135 -123 0
v -136 -124 0
v -137 -124 0
v -137 -123 0
v -136 -123 0
v -137 -124 0
v -138 -124 0
v -138 -123 0
v -137 -123 0
v -138 -124 0
v -139 -124 0
v -139 -123 0
v -138 -123 0
v -139 -124 0
v -140 -124 0
v -140 -123 0
v -139 -123 0
v -140 -124 0
v -141 -124 0
v -141 -123 0
v -140 -123 0
v -141 -124 0
v -142 -124 0
v -142 -123 0
v -141 -123 0
v -142 -124 0
v -143 -124 0
v -143 -123 0
v -142 -123 0
v -143 -124 0
v -144 -124 0
v -144 -123 0
v -143 -123 0
v -144 -124 0
v -145 -124 0
v -145 -123 0
v -144 -123 0
v -145 -124 0
v -146 -124 0
v -146 -123 0
v -145 -123 0
v -146 -124 0
v -147 -124 0
v -147 -123 0
v -146 -123 0
v -147 -124 0
v -148 -124 0
v -148 -123 0
v -147 -123 0
v -148 -124 0
v -149 -124 0
v -149 -123 0
v -148 -123 0
v -149 -124 0
v -150 -124 0
v -150 -123 0
v -149 -123 0
v -132 -125 0
v -133 -125 0
v -133 -124 0
v -132 -124 0
v -133 -125 0
v -134 -125 0
v -134 -124 0
v -133 -124 0
v -134 -125 0
v -135 -125 0
v -135 -124 0
v -134 -124 0
v -135 -125 0
v -136 -125 0
v -136 -124 0
v -135 -124 0
v -136 -125 0
v -137 -125 0
v -137 -124 0
v -136 -124 0
v -137 -125 0
v -138 -125 0
v -138 -124 0
v -137 -124 0
v -138 -125 0
v -139 -125 0
v -139 -124 0
v -138 -124 0
v -139 -125 0
v -140 -125 0
v -140 -124 0
v -139 -124 0
v -140 -125 0
v -141 -125 0
v -141 -124 0
v -140 -124 0
v -141 -125 0
v -142 -125 0
v -142 -124 0
v -141 -124 0
v -142 -125 0
v -143 -125 0
v -143 -124 0
v -142 -124 0
v -143 -125 0
v -144 -125 0
v -144 -124 0
v -143 -124 0
v -144 -125 0
v -145 -125 0
v -145 -124 0
v -144 -124 0
v -145 -125 0
v -146 -125 0
v -146 -124 0
v -145 -124 0
v -146 -125 0
v -147 -125 0
v -147 -124 0
v -146 -124 0
v -147 -125 0
v -148 -125 0
v -148 -124 0
v -147 -124 0
v -148 -125 0
v -149 -125 0
v -149 -124 0
v -148 -124 0
v -149 -125 0
v -150 -125 0
v -150 -124 0
v -149 -124 0

# Texture cooridinates (Count = 14)
vt 0.8282353 0.9215686
vt 0.8658823 0.9215686
vt 0.8658823 1
vt 0.8282353 1
vt 0.7905883 0.9215686
vt 0.7905883 1
vt 0 0.8431373
vt 0.03764706 0.8431373
vt 0.03764706 0.9215686
vt 0 0.9215686
vt 0 0.372549
vt 0.03764706 0.372549
vt 0.03764706 0.4509804
vt 0 0.4509804

# Normal
vn 0 0 -1

# Mesh description
g Sci-FiLevelThree_mesh_0004

# Faces
f 1/1/1 2/2/1 3/3/1 4/4/1
f 5/1/1 6/2/1 7/3/1 8/4/1
f 9/1/1 10/2/1 11/3/1 12/4/1
f 13/1/1 14/2/1 15/3/1 16/4/1
f 17/1/1 18/2/1 19/3/1 20/4/1
f 21/5/1 22/1/1 23/4/1 24/6/1
f 25/1/1 26/2/1 27/3/1 28/4/1
f 29/1/1 30/2/1 31/3/1 32/4/1
f 33/1/1 34/2/1 35/3/1 36/4/1
f 37/1/1 38/2/1 39/3/1 40/4/1
f 41/1/1 42/2/1 43/3/1 44/4/1
f 45/1/1 46/2/1 47/3/1 48/4/1
f 49/1/1 50/2/1 51/3/1 52/4/1
f 53/1/1 54/2/1 55/3/1 56/4/1
f 57/1/1 58/2/1 59/3/1 60/4/1
f 61/1/1 62/2/1 63/3/1 64/4/1
f 65/1/1 66/2/1 67/3/1 68/4/1
f 69/1/1 70/2/1 71/3/1 72/4/1
f 73/1/1 74/2/1 75/3/1 76/4/1
f 77/7/1 78/8/1 79/9/1 80/10/1
f 81/7/1 82/8/1 83/9/1 84/10/1
f 85/7/1 86/8/1 87/9/1 88/10/1
f 89/7/1 90/8/1 91/9/1 92/10/1
f 93/7/1 94/8/1 95/9/1 96/10/1
f 97/7/1 98/8/1 99/9/1 100/10/1
f 101/7/1 102/8/1 103/9/1 104/10/1
f 105/7/1 106/8/1 107/9/1 108/10/1
f 109/7/1 110/8/1 111/9/1 112/10/1
f 113/7/1 114/8/1 115/9/1 116/10/1
f 117/7/1 118/8/1 119/9/1 120/10/1
f 121/7/1 122/8/1 123/9/1 124/10/1
f 125/7/1 126/8/1 127/9/1 128/10/1
f 129/7/1 130/8/1 131/9/1 132/10/1
f 133/7/1 134/8/1 135/9/1 136/10/1
f 137/7/1 138/8/1 139/9/1 140/10/1
f 141/7/1 142/8/1 143/9/1 144/10/1
f 145/7/1 146/8/1 147/9/1 148/10/1
f 149/7/1 150/8/1 151/9/1 152/10/1
f 153/7/1 154/8/1 155/9/1 156/10/1
f 157/7/1 158/8/1 159/9/1 160/10/1
f 161/7/1 162/8/1 163/9/1 164/10/1
f 165/7/1 166/8/1 167/9/1 168/10/1
f 169/7/1 170/8/1 171/9/1 172/10/1
f 173/7/1 174/8/1 175/9/1 176/10/1
f 177/7/1 178/8/1 179/9/1 180/10/1
f 181/7/1 182/8/1 183/9/1 184/10/1
f 185/7/1 186/8/1 187/9/1 188/10/1
f 189/7/1 190/8/1 191/9/1 192/10/1
f 193/7/1 194/8/1 195/9/1 196/10/1
f 197/7/1 198/8/1 199/9/1 200/10/1
f 201/7/1 202/8/1 203/9/1 204/10/1
f 205/7/1 206/8/1 207/9/1 208/10/1
f 209/7/1 210/8/1 211/9/1 212/10/1
f 213/7/1 214/8/1 215/9/1 216/10/1
f 217/7/1 218/8/1 219/9/1 220/10/1
f 221/7/1 222/8/1 223/9/1 224/10/1
f 225/11/1 226/12/1 227/13/1 228/14/1
f 229/11/1 230/12/1 231/13/1 232/14/1
f 233/11/1 234/12/1 235/13/1 236/14/1
f 237/11/1 238/12/1 239/13/1 240/14/1
f 241/11/1 242/12/1 243/13/1 244/14/1
f 245/11/1 246/12/1 247/13/1 248/14/1
f 249/11/1 250/12/1 251/13/1 252/14/1
f 253/11/1 254/12/1 255/13/1 256/14/1
f 257/11/1 258/12/1 259/13/1 260/14/1
f 261/7/1 262/8/1 263/9/1 264/10/1
f 265/7/1 266/8/1 267/9/1 268/10/1
f 269/7/1 270/8/1 271/9/1 272/10/1
f 273/7/1 274/8/1 275/9/1 276/10/1
f 277/7/1 278/8/1 279/9/1 280/10/1
f 281/7/1 282/8/1 283/9/1 284/10/1
f 285/7/1 286/8/1 287/9/1 288/10/1
f 289/7/1 290/8/1 291/9/1 292/10/1
f 293/7/1 294/8/1 295/9/1 296/10/1
f 297/7/1 298/8/1 299/9/1 300/10/1
f 301/7/1 302/8/1 303/9/1 304/10/1
f 305/7/1 306/8/1 307/9/1 308/10/1
f 309/7/1 310/8/1 311/9/1 312/10/1
f 313/7/1 314/8/1 315/9/1 316/10/1
f 317/7/1 318/8/1 319/9/1 320/10/1
f 321/7/1 322/8/1 323/9/1 324/10/1
f 325/7/1 326/8/1 327/9/1 328/10/1
f 329/7/1 330/8/1 331/9/1 332/10/1
f 333/7/1 334/8/1 335/9/1 336/10/1
f 337/7/1 338/8/1 339/9/1 340/10/1
f 341/7/1 342/8/1 343/9/1 344/10/1
f 345/7/1 346/8/1 347/9/1 348/10/1
f 349/7/1 350/8/1 351/9/1 352/10/1
f 353/7/1 354/8/1 355/9/1 356/10/1
f 357/7/1 358/8/1 359/9/1 360/10/1
f 361/7/1 362/8/1 363/9/1 364/10/1
f 365/7/1 366/8/1 367/9/1 368/10/1
f 369/7/1 370/8/1 371/9/1 372/10/1
f 373/7/1 374/8/1 375/9/1 376/10/1
f 377/7/1 378/8/1 379/9/1 380/10/1
f 381/7/1 382/8/1 383/9/1 384/10/1
f 385/7/1 386/8/1 387/9/1 388/10/1
f 389/7/1 390/8/1 391/9/1 392/10/1
f 393/7/1 394/8/1 395/9/1 396/10/1
f 397/7/1 398/8/1 399/9/1 400/10/1
f 401/7/1 402/8/1 403/9/1 404/10/1
f 405/7/1 406/8/1 407/9/1 408/10/1
f 409/7/1 410/8/1 411/9/1 412/10/1

