# Tiled2Unity generated file. Do not modify by hand.
# Wavefront file for 'Sci-FiLevel_mesh_0002.obj'

# Vertices (Count = 20)
v -43 -136 0
v -44 -136 0
v -44 -135 0
v -43 -135 0
v -44 -136 0
v -45 -136 0
v -45 -135 0
v -44 -135 0
v -45 -136 0
v -46 -136 0
v -46 -135 0
v -45 -135 0
v -46 -136 0
v -47 -136 0
v -47 -135 0
v -46 -135 0
v -47 -136 0
v -48 -136 0
v -48 -135 0
v -47 -135 0

# Texture cooridinates (Count = 8)
vt 0.7428572 0.8695652
vt 0.7714286 0.8695652
vt 0.7714286 0.9130435
vt 0.7428572 0.9130435
vt 0.8 0.8695652
vt 0.8 0.9130435
vt 0.8285714 0.8695652
vt 0.8285714 0.9130435

# Normal
vn 0 0 -1

# Mesh description
g Sci-FiLevel_mesh_0002

# Faces
f 1/1/1 2/2/1 3/3/1 4/4/1
f 5/2/1 6/5/1 7/6/1 8/3/1
f 9/2/1 10/5/1 11/6/1 12/3/1
f 13/2/1 14/5/1 15/6/1 16/3/1
f 17/5/1 18/7/1 19/8/1 20/6/1

